# xmcd
#
# Track frame offsets: 
#        150
#        11089
#        20682
#        30783
#        41173
#        50817
#        59821
#        70155
#        79765
#        90761
#        101284
#        112433
#        123429
#        131851
#        141889
#        150764
#        160155
#        170604
#        181934
#        193888
#
# Disc length: 2726 seconds
#
# Revision: 0
# Processed by: cddbd v1.5.2PL0 Copyright (c) Steve Scherf et al.
# Submitted via: ExactAudioCopy v0.99pb5
#
DISCID=130aa414
DTITLE=Everly Brothers  - 100 Hits Legends - CD 1
DYEAR=1900
DGENRE=
TTITLE0=Bye Bye Love
TTITLE1=Wake Up Little Suzie
TTITLE2=Claudette
TTITLE3=Bird Dog
TTITLE4=Should We Tell Him
TTITLE5=Problems
TTITLE6=The Little Girl Of Mine
TTITLE7=Love Of My Life
TTITLE8=Devoted To You
TTITLE9=Poor Jenny
TTITLE10=Take A Message To Mary
TTITLE11=Til I Kissed You
TTITLE12=Carol Jane
TTITLE13=Just In Case
TTITLE14=Since You Broke My Heart
TTITLE15=When Will I Be Loved
TTITLE16=Be Bop-A-Lula
TTITLE17=Always Its You
TTITLE18=Let It Be Me
TTITLE19=All I Have To Do Is Dream
EXTD=
EXTT0=
EXTT1=
EXTT2=
EXTT3=
EXTT4=
EXTT5=
EXTT6=
EXTT7=
EXTT8=
EXTT9=
EXTT10=
EXTT11=
EXTT12=
EXTT13=
EXTT14=
EXTT15=
EXTT16=
EXTT17=
EXTT18=
EXTT19=
PLAYORDER=
